<?xml version="1.0" standalone="no"?>
<!DOCTYPE svg PUBLIC "-//W3C//DTD SVG 20010904//EN"
 "http://www.w3.org/TR/2001/REC-SVG-20010904/DTD/svg10.dtd">
<svg version="1.0" xmlns="http://www.w3.org/2000/svg"
 width="7972.000000pt" height="7301.000000pt" viewBox="0 0 7972.000000 7301.000000"
 preserveAspectRatio="xMidYMid meet">

<g transform="translate(0.000000,7301.000000) scale(0.100000,-0.100000)"
fill="#000000" stroke="none">
<path d="M40540 65429 c-6376 -157 -12282 -1939 -16650 -5024 -3242 -2291
-5367 -5130 -6143 -8210 -222 -881 -324 -1682 -332 -2620 -4 -438 4 -606 61
-1225 123 -1348 383 -2962 738 -4591 31 -141 56 -260 56 -265 0 -6 -39 -39
-87 -74 -315 -233 -987 -766 -1245 -987 -15 -13 -41 -9 -220 36 -616 153
-1201 253 -1823 310 -663 62 -1350 67 -1955 16 -1304 -111 -2448 -481 -3334
-1077 -488 -328 -919 -742 -1259 -1210 -589 -811 -952 -1840 -1071 -3038 -145
-1454 177 -2709 962 -3747 534 -706 1258 -1292 2229 -1803 69 -37 82 -47 78
-64 -10 -43 -55 -388 -74 -566 -60 -554 -75 -849 -75 -1460 0 -553 0 -830 0
-1740 0 -523 6 -689 40 -1095 347 -4168 2562 -8118 6394 -11406 2554 -2191
5786 -4047 9390 -5392 4015 -1499 8465 -2376 13100 -2582 777 -34 1075 -40
2115 -40 1040 0 1338 6 2115 40 7731 344 14881 2555 20270 6270 2348 1618
4262 3452 5689 5448 1739 2434 2727 5055 2935 7782 32 411 39 688 31 1220 -9
638 -9 622 0 1260 8 534 1 801 -31 1220 -263 3468 -1793 6759 -4515 9710 -221
240 -869 892 -1099 1106 -680 632 -1355 1197 -2108 1763 -106 79 -142 112
-138 124 11 36 158 712 220 1007 349 1667 579 3220 661 4465 8 129 17 250 19
268 4 25 1 32 -13 32 -15 0 -16 13 -13 158 8 286 -23 876 -63 1247 -385 3490
-2436 6733 -5911 9342 -2505 1881 -5592 3332 -9054 4256 -2859 764 -5949 1154
-9065 1145 -286 -1 -657 -5 -825 -9z m2195 -328 c828 -36 1324 -68 1975 -127
5783 -523 11054 -2440 14858 -5401 930 -724 1795 -1542 2509 -2373 991 -1152
1759 -2391 2273 -3665 368 -914 604 -1830 719 -2790 84 -699 93 -1489 25
-2205 -205 -2178 -1102 -4300 -2633 -6230 -1783 -2248 -4395 -4190 -7579
-5636 -3498 -1589 -7560 -2522 -11807 -2714 -1017 -46 -2263 -46 -3280 0
-6174 278 -11901 2125 -16045 5174 -3407 2507 -5488 5670 -5930 9015 -65 491
-84 817 -84 1381 0 520 11 724 59 1160 210 1880 937 3716 2148 5425 1308 1846
3179 3524 5474 4908 3368 2031 7519 3372 11998 3876 1017 115 2002 181 3180
215 246 7 1907 -3 2140 -13z m-24470 -19806 c506 -1240 1294 -2505 2260 -3630
481 -561 1097 -1180 1695 -1706 3808 -3342 9377 -5550 15565 -6169 1725 -172
3542 -222 5290 -145 3457 154 6797 793 9816 1879 1628 585 3184 1313 4564
2134 2035 1211 3720 2609 5014 4158 886 1061 1584 2185 2078 3344 54 126 99
226 101 221 2 -5 -35 -200 -82 -433 -767 -3825 -2111 -8149 -3613 -11623 -661
-1529 -1278 -2780 -1946 -3950 -491 -858 -1026 -1696 -1455 -2275 -1546 -2086
-3853 -3733 -6867 -4902 -2348 -911 -5170 -1521 -8020 -1733 -497 -37 -1100
-59 -1420 -51 -243 6 -707 27 -890 41 -417 31 -632 49 -805 65 -3827 370
-7334 1395 -10000 2923 -1729 991 -3128 2190 -4176 3582 -432 573 -1036 1507
-1531 2366 l-130 226 10 109 c34 386 -112 921 -389 1427 -154 280 -403 655
-539 811 -106 120 -262 253 -415 353 l-65 42 -117 259 c-561 1238 -1037 2413
-1554 3837 l-98 270 4 105 c15 338 -2 588 -65 963 -227 1343 -655 2470 -1223
3221 -42 56 -82 118 -89 138 -22 64 -190 714 -303 1173 -144 582 -304 1280
-401 1745 -60 287 -157 771 -204 1025 -30 160 -58 304 -61 320 -10 49 1 28 61
-120z m46480 -2318 c1530 -1170 2911 -2519 3996 -3902 1908 -2433 3045 -5092
3343 -7820 101 -926 109 -1808 25 -2740 -357 -3966 -2478 -7767 -6109 -10948
-2228 -1953 -4984 -3634 -8105 -4942 -4367 -1831 -9323 -2894 -14495 -3110
-1254 -52 -2679 -52 -3930 0 -6416 268 -12474 1839 -17465 4528 -3841 2069
-6888 4739 -8832 7737 -1008 1556 -1696 3132 -2097 4805 -250 1045 -369 2057
-370 3155 0 483 9 722 45 1150 30 359 84 817 99 833 4 4 85 -26 180 -68 1186
-522 2606 -889 4251 -1100 587 -75 1313 -139 1809 -160 74 -3 158 -8 186 -11
l52 -5 6 -177 c22 -599 64 -1039 147 -1542 345 -2092 1313 -4125 2836 -5953
2047 -2458 5081 -4547 8710 -5998 3238 -1294 6874 -2055 10673 -2234 1069 -50
2315 -52 3375 -5 6344 283 12171 2187 16420 5365 1102 824 2085 1736 2913
2700 1511 1761 2508 3729 2911 5750 111 553 161 924 203 1500 17 240 17 1098
0 1340 -52 720 -147 1329 -307 1973 -387 1558 -1122 3078 -2163 4467 l-105
139 27 81 c536 1616 1064 3456 1441 5025 42 173 78 323 81 333 6 21 -2 26 249
-166z m-46294 -253 c53 -225 138 -570 187 -767 l90 -358 -42 34 c-248 204
-485 346 -711 427 -49 18 -148 55 -220 83 -71 27 -206 75 -299 107 l-170 56
115 95 c314 261 928 740 943 736 5 -2 53 -187 107 -413z m-4076 -224 c1177
-62 2398 -307 3290 -660 66 -26 145 -55 175 -64 83 -26 265 -116 375 -185 293
-184 594 -480 844 -830 393 -549 707 -1272 930 -2141 85 -335 174 -773 222
-1095 26 -180 37 -573 20 -725 -72 -633 -420 -1006 -1042 -1115 -520 -92
-1240 15 -2119 314 -371 126 -599 229 -1360 612 -737 372 -1013 496 -1350 609
-330 111 -515 149 -768 157 -322 10 -530 -42 -748 -187 -107 -71 -265 -233
-343 -350 -166 -249 -301 -598 -380 -986 -37 -181 -47 -318 -32 -441 94 -764
902 -1294 2571 -1687 737 -173 1332 -276 3245 -561 1954 -291 2881 -489 3620
-772 577 -221 920 -460 1170 -813 588 -832 820 -1553 668 -2080 -90 -312 -331
-539 -688 -646 -115 -34 -289 -39 -400 -10 -208 54 -456 197 -815 471 -829
632 -1029 766 -1435 965 -400 196 -782 314 -1180 364 -181 23 -245 26 -825 36
-854 16 -1495 54 -2245 136 -2488 270 -4476 882 -5883 1811 -1548 1022 -2331
2423 -2332 4173 0 877 183 1811 505 2565 328 771 845 1438 1500 1935 888 674
2078 1079 3485 1185 113 8 234 17 270 18 171 8 886 6 1055 -3z m48590 -5361
c587 -819 1097 -1739 1454 -2621 435 -1080 680 -2111 777 -3273 21 -258 30
-1036 15 -1316 -41 -759 -136 -1385 -318 -2104 -479 -1897 -1506 -3742 -3013
-5410 -519 -574 -1107 -1139 -1739 -1669 -2269 -1903 -5195 -3448 -8486 -4481
-625 -196 -1093 -328 -1760 -495 -2147 -540 -4379 -868 -6675 -980 -547 -27
-748 -32 -1515 -37 -1028 -7 -1691 10 -2585 67 -5001 319 -9697 1672 -13465
3878 -3454 2023 -5940 4653 -7160 7577 -431 1032 -707 2131 -804 3200 -27 290
-41 553 -41 742 l0 153 352 -5 c505 -7 652 -13 785 -30 495 -64 951 -228 1426
-512 260 -156 393 -251 1047 -749 278 -211 447 -322 625 -410 253 -124 400
-160 620 -151 419 18 857 287 1055 648 l28 51 42 -73 c447 -776 1029 -1676
1448 -2239 718 -965 1613 -1852 2667 -2642 1589 -1191 3593 -2176 5861 -2883
1710 -533 3604 -920 5529 -1129 456 -50 961 -92 1555 -128 271 -17 1220 -17
1490 0 1027 63 1832 145 2725 277 4473 661 8223 2166 10830 4345 904 756 1632
1545 2282 2470 912 1301 1821 2926 2710 4845 69 149 141 304 160 345 69 146
337 759 459 1048 451 1066 914 2266 1294 3358 61 175 127 366 147 422 l36 104
18 -24 c10 -12 66 -89 124 -169z m-49217 -84 c281 -39 617 -150 1048 -345 84
-38 432 -209 774 -380 841 -420 1013 -498 1424 -636 496 -168 979 -285 1341
-324 61 -6 116 -13 122 -15 9 -3 -1 -32 -28 -92 -259 -558 -491 -1166 -635
-1666 -27 -94 -29 -98 -53 -93 -15 3 -240 37 -501 76 -1659 247 -2623 446
-3369 696 -596 199 -1023 438 -1250 698 -146 168 -208 316 -218 521 -6 119 3
192 43 375 161 720 457 1117 886 1189 86 14 299 12 416 -4z m6732 -1060 c348
-955 890 -2292 1298 -3200 49 -110 89 -201 88 -202 -1 -2 -70 25 -152 58 -701
284 -1723 516 -3346 760 l-287 43 6 26 c3 14 46 149 96 300 152 467 350 960
559 1391 l80 166 121 6 c514 26 911 184 1187 473 92 97 188 231 236 331 16 33
32 58 35 54 3 -3 39 -96 79 -206z m-9613 -9897 c-3 -8 -6 -5 -6 6 -1 11 2 17
5 13 3 -3 4 -12 1 -19z m61140 0 c-3 -8 -6 -5 -6 6 -1 11 2 17 5 13 3 -3 4
-12 1 -19z m-60971 -571 c675 -2171 1914 -4302 3608 -6207 501 -563 1154
-1220 1732 -1741 2327 -2100 5268 -3915 8579 -5294 4314 -1797 9212 -2849
14330 -3079 801 -36 1035 -41 2150 -41 1115 0 1347 4 2150 40 7597 341 14633
2490 20000 6109 1149 775 2151 1565 3140 2475 221 203 980 959 1176 1171 1985
2148 3326 4442 4033 6900 36 124 65 216 66 205 0 -31 -65 -397 -110 -620 -664
-3250 -2490 -6309 -5371 -8995 -5025 -4687 -12863 -7763 -21469 -8425 -1377
-106 -2415 -141 -3915 -132 -897 5 -1124 10 -1740 37 -6940 303 -13473 2136
-18620 5225 -3652 2191 -6445 4915 -8157 7955 -835 1482 -1414 3068 -1697
4645 -60 335 -59 358 3 142 30 -103 81 -269 112 -370z"/>
<path d="M40450 64339 c-5131 -157 -9909 -1479 -13663 -3780 -1632 -1001
-3038 -2172 -4126 -3439 -1653 -1924 -2594 -4061 -2776 -6303 -64 -799 -27
-1626 111 -2427 591 -3446 3025 -6590 6923 -8944 848 -513 1855 -1027 2811
-1436 4024 -1722 8770 -2499 13590 -2225 4694 268 9072 1530 12570 3625 1884
1128 3435 2442 4611 3905 1442 1794 2281 3770 2473 5825 54 575 54 1232 0
1805 -220 2336 -1258 4537 -3078 6530 -173 189 -642 659 -856 859 -2362 2194
-5611 3914 -9315 4931 -2338 642 -4761 996 -7345 1075 -374 11 -1553 11 -1930
-1z m1825 -319 c753 -21 1383 -58 2080 -121 4137 -374 7998 -1540 11140 -3364
1163 -675 2194 -1420 3143 -2272 375 -335 983 -958 1323 -1353 1396 -1625
2286 -3438 2599 -5294 61 -366 104 -734 115 -1006 6 -154 7 -156 -65 95 -240
825 -631 1709 -1108 2505 -913 1521 -2203 2915 -3841 4149 -3761 2833 -8937
4546 -14581 4826 -1063 52 -2226 52 -3290 0 -6212 -308 -11843 -2355 -15630
-5681 -1971 -1731 -3338 -3786 -3931 -5909 -30 -106 -34 -115 -37 -80 -9 110
58 752 113 1074 165 978 465 1886 931 2821 495 991 1117 1890 1938 2800 167
185 602 626 819 831 1356 1280 3063 2423 4987 3339 3430 1633 7485 2547 11725
2643 318 7 1265 6 1570 -3z m-535 -3215 c4691 -361 8694 -1335 11847 -2885
1430 -703 2557 -1441 3563 -2334 178 -158 676 -657 819 -821 690 -790 1132
-1559 1302 -2260 61 -256 84 -460 76 -680 -10 -253 -65 -415 -181 -531 -231
-231 -660 -226 -1461 16 -336 102 -749 253 -1715 625 -1113 429 -1669 632
-2342 854 -1594 526 -3004 844 -4373 985 -1551 160 -3196 19 -5050 -434 -1077
-263 -2019 -559 -4020 -1265 -757 -267 -1202 -421 -1580 -547 -1749 -582
-2929 -838 -4040 -877 -1460 -52 -2696 340 -3601 1141 -1274 1126 -1718 2970
-1142 4738 194 597 532 1220 903 1667 906 1090 2840 1867 5715 2297 1373 206
3050 328 4590 334 306 2 417 -2 690 -23z"/>
</g>
</svg>
